<svg width="1440" height="1011" viewBox="0 0 1440 1011" fill="none" xmlns="http://www.w3.org/2000/svg">
<path d="M453.751 1128.38C464.283 1120.48 461.65 1120.48 473.936 1120.48C511.673 1108.19 486.91 1113.89 530.981 1108.19C561.755 1104.39 560.819 1101.17 602.945 1093.27L642.437 1084.5C642.437 1084.5 654.723 1084.5 711.933 1074.59C724.037 864.321 811.691 656.522 874.539 569.834C896.575 539.44 921.65 511.326 949.764 486.251C955.463 480.932 961.541 475.993 967.62 471.054C970.659 468.395 973.699 466.115 976.738 463.836C979.778 461.556 982.817 458.897 985.856 456.617C988.896 454.338 991.935 452.058 994.974 449.779C995.354 449.779 995.354 449.399 995.734 449.399C998.774 447.119 1001.81 444.84 1004.85 442.94C1007.89 440.661 1011.31 438.381 1014.73 436.482C1021.19 432.302 1027.65 428.123 1034.11 424.324C1034.49 423.944 1034.87 423.944 1035.63 423.564C1038.67 421.665 1041.7 419.765 1045.12 418.245C1045.12 418.245 1045.12 418.245 1045.5 418.245C1055.76 412.546 1066.02 407.228 1076.66 402.289C1079.32 401.149 1082.36 399.629 1085.02 398.489C1085.78 398.109 1086.16 397.73 1086.92 397.73C1088.44 396.97 1089.57 396.59 1091.09 395.83C1092.61 395.07 1094.13 394.31 1095.65 393.93C1097.55 393.17 1099.45 392.411 1101.35 391.651C1103.63 390.511 1106.29 389.751 1108.57 388.611C1109.71 388.232 1111.23 387.472 1112.37 387.092C1114.27 386.332 1116.17 385.572 1118.07 384.812C1119.59 384.052 1121.11 383.672 1123.01 382.913C1126.05 381.773 1129.47 380.633 1132.51 379.493C1135.55 378.354 1138.2 377.594 1141.24 376.454C1145.8 374.934 1150.36 373.415 1155.3 372.275C1159.1 371.135 1162.52 369.995 1166.32 369.235C1170.12 368.096 1173.92 367.336 1177.72 366.196C1182.28 365.056 1186.45 364.297 1191.01 363.157C1194.43 362.397 1198.23 361.637 1201.65 360.877C1205.83 360.117 1209.63 359.358 1213.81 358.598C1225.97 356.698 1238.12 354.798 1250.28 353.659C1258.64 352.899 1266.62 352.139 1274.98 351.759C1279.16 351.379 1283.33 351.379 1287.51 351.379C1291.69 351.379 1295.87 350.999 1300.05 350.999C1301.19 350.999 1302.33 350.999 1303.47 350.999C1467.22 350.999 1599.81 483.972 1599.81 647.718C1599.81 698.627 1586.89 746.497 1564.48 788.289C1564.48 788.668 1564.1 789.048 1564.1 789.048C1563.72 789.428 1563.72 789.808 1563.34 790.188C1576.25 810.704 1588.41 825.521 1599.81 832.359C1629.82 850.596 1636.66 467.635 1662.12 491.19C1649.58 466.875 1635.52 443.7 1619.57 421.665C1523.44 289.452 1642.46 268.109 1466.18 268.109C1459.72 268.109 1451.9 271.155 1445.82 271.535C1448.48 271.155 1443.16 271.535 1445.82 271.535C1736.25 334.915 1442.4 271.535 1445.82 271.535C1736.25 334.915 1440.15 267.551 1440.15 267.551C1734.38 330.551 1731.34 330.931 1440.15 267.551C1440.2 267.542 1440.11 267.561 1440.15 267.551C1744.61 329.411 1440.2 267.542 1440.15 267.551C1748.42 328.652 1694.67 291.584 1440.15 267.551C1058.79 127.903 530.981 384.812 362.12 848.458C177.14 1356.37 342.876 1173.63 337.937 1180.09C394.074 1143.3 422.157 1134.52 422.157 1134.52C432.689 1134.52 437.077 1128.38 453.751 1128.38Z" fill="#5BD8D8"/>
<path d="M1257.88 1036.38C1285.23 1037.9 1312.21 1037.14 1339.18 1034.1C1501.79 1017 1654.52 925.061 1742.66 772.712C1745.7 767.393 1748.74 761.695 1751.78 756.376C1752.92 754.096 1754.44 751.437 1755.58 749.157C1757.1 746.118 1758.62 743.458 1760.13 740.419C1760.13 740.039 1760.51 740.039 1760.51 739.659C1760.89 738.519 1761.65 737.76 1762.03 736.62C1763.93 732.441 1765.83 728.641 1767.73 724.462C1768.49 722.563 1769.63 720.283 1770.39 718.384C1771.15 716.484 1772.29 714.205 1773.05 712.305C1773.81 710.405 1774.95 708.126 1775.71 706.226C1777.61 702.047 1779.13 697.488 1780.65 693.309C1782.17 689.51 1783.69 685.331 1784.83 681.531C1849.04 499.929 1812.56 314.527 1795.47 249.181C1795.47 249.181 1795.47 249.181 1795.47 248.801C1793.95 240.822 1792.05 232.844 1788.63 225.246C1788.63 224.486 1788.25 224.486 1788.25 224.486C1777.23 197.891 1756.34 175.476 1727.84 163.698C1711.5 156.86 1694.79 154.2 1678.45 155.34C1637.04 157.62 1598.29 183.074 1581.19 224.106C1569.41 252.6 1570.17 283.374 1581.19 309.968C1581.19 309.968 1581.19 310.348 1581.57 310.348V310.728C1582.33 312.628 1583.09 314.147 1583.85 315.667C1599.05 349.86 1610.83 385.572 1618.42 422.425C1643.88 542.86 1627.54 672.793 1563.34 788.289C1563.34 788.669 1562.96 789.049 1562.96 789.049C1562.58 789.429 1562.58 789.809 1562.2 790.189C1511.67 881.75 1414.41 944.057 1302.33 944.057C1195.57 944.057 1101.73 887.449 1049.68 802.726C1049.68 802.346 1049.3 802.346 1049.3 801.966C1048.16 800.447 1047.4 798.547 1046.26 797.027C1020.81 797.407 1000.67 800.447 988.514 807.285C957.361 824.382 1291.31 1026.12 1257.88 1036.38Z" fill="#FED249"/>
<path d="M973.698 966.47C976.738 971.789 980.157 977.487 983.196 982.426C984.716 984.706 986.236 986.986 987.376 989.265C989.275 991.925 990.795 994.964 992.695 997.623C992.695 997.623 993.074 998.003 993.074 998.383C993.454 999.143 994.214 1000.28 994.974 1001.04C997.633 1004.84 999.913 1008.26 1002.57 1012.06C1003.71 1013.96 1005.23 1015.86 1006.37 1017.38C1007.89 1019.28 1009.03 1020.8 1010.55 1022.7C1012.07 1024.6 1013.21 1026.12 1014.73 1028.02C1017.77 1031.82 1020.43 1035.24 1023.47 1039.03C1026.13 1042.07 1028.79 1045.49 1031.45 1048.53C1156.44 1194.8 1335.38 1255.97 1400.35 1274.21C1400.35 1274.21 1400.35 1274.21 1400.73 1274.21C1408.33 1277.25 1416.31 1279.15 1424.66 1280.28C1425.42 1280.28 1425.42 1280.28 1425.42 1280.28C1453.92 1284.08 1483.55 1277.25 1508.25 1258.25C1522.3 1247.61 1532.94 1234.31 1540.16 1219.5C1558.78 1182.27 1556.12 1136.29 1529.14 1100.96C1510.15 1076.27 1483.55 1061.83 1455.06 1058.03H1454.68H1454.3C1452.4 1058.03 1450.5 1057.65 1448.6 1057.27C1411.37 1053.47 1374.52 1045.49 1338.8 1034.1C1221.41 995.724 1116.93 916.7 1048.92 802.724C1048.92 802.344 1048.54 802.344 1048.54 801.964C1047.4 800.444 1046.64 798.545 1045.5 797.025C1019.67 752.954 1005.23 702.045 1005.23 647.336C1005.23 486.249 1133.65 355.176 1293.97 350.997C1291.31 350.997 1288.65 350.997 1285.99 350.997C1281.81 350.997 1277.64 351.377 1273.46 351.377C1265.1 351.757 1256.74 352.517 1248.76 353.277C1236.6 354.416 1224.45 356.316 1212.29 358.216C1208.11 358.976 1204.31 359.735 1200.13 360.495C1196.71 361.255 1192.91 362.015 1189.49 362.775C1184.93 363.914 1180.76 364.674 1176.2 365.814C1172.4 366.954 1168.6 367.714 1164.8 368.853C1161 369.993 1157.2 370.753 1153.78 371.893C1149.22 373.413 1144.28 374.552 1139.72 376.072C1136.68 377.212 1134.03 377.972 1130.99 379.111C1127.57 380.251 1124.53 381.391 1121.49 382.531C1119.97 383.29 1118.07 383.67 1116.55 384.43C1114.65 385.19 1112.75 385.95 1110.85 386.71C1109.71 387.09 1108.19 387.85 1107.05 388.229C1104.77 389.369 1102.11 390.129 1099.83 391.269C1097.93 392.029 1096.03 392.789 1094.13 393.548C1092.61 394.308 1091.09 394.688 1089.57 395.448C1088.05 395.828 1086.91 396.588 1085.4 397.348C1084.64 397.728 1084.26 397.727 1083.5 398.107C1080.46 399.247 1077.8 400.767 1075.14 401.907C1064.5 406.846 1054.24 412.164 1043.98 417.863C1043.98 417.863 1043.98 417.863 1043.6 417.863C1040.56 419.763 1037.53 421.283 1034.11 423.182C1033.73 423.562 1033.35 423.562 1032.59 423.942C1026.13 427.741 1019.67 431.92 1013.21 436.1C1009.79 438.379 1006.75 440.279 1003.33 442.558C1000.29 444.458 997.254 446.737 994.214 449.017C994.214 449.017 993.834 449.397 993.454 449.397C990.415 451.676 987.376 453.956 984.336 456.235C981.297 458.515 978.257 460.794 975.218 463.454C972.179 465.733 969.139 468.393 966.1 470.672C960.021 475.611 954.323 480.93 948.244 485.869C882.137 635.938 885.557 814.121 973.698 966.47Z" fill="#FA4546"/>
<path d="M914.705 -76.4452C910.467 -103.512 904.079 -129.73 895.463 -155.471C844.719 -310.9 722.855 -441.009 555.435 -495.32C549.598 -497.179 543.389 -498.959 537.552 -500.818C535.084 -501.455 532.166 -502.385 529.698 -503.022C526.408 -503.872 523.49 -504.802 520.2 -505.652C519.828 -505.572 519.749 -505.944 519.377 -505.864C518.183 -505.997 517.281 -506.581 516.087 -506.714C511.603 -507.698 507.49 -508.76 503.006 -509.743C500.99 -510.089 498.522 -510.726 496.505 -511.072C494.489 -511.417 492.021 -512.055 490.005 -512.4C487.988 -512.746 485.521 -513.383 483.504 -513.729C479.02 -514.712 474.244 -515.244 469.839 -515.856C465.806 -516.547 461.402 -517.158 457.448 -517.478C266.431 -542.262 92.7653 -467.801 32.443 -437.409C32.443 -437.409 32.443 -437.409 32.0714 -437.33C24.5877 -434.174 17.1835 -430.647 10.4688 -425.714C9.72577 -425.555 9.80528 -425.183 9.80528 -425.183C-13.895 -408.844 -31.4416 -383.721 -36.996 -353.393C-40.2647 -335.987 -39.3672 -319.084 -34.8342 -303.348C-23.9397 -263.33 9.06043 -230.762 52.7611 -222.63C83.0888 -217.076 113.022 -224.259 136.722 -240.597C136.722 -240.597 137.094 -240.677 137.014 -241.048L137.386 -241.128C139.085 -242.268 140.412 -243.329 141.739 -244.39C171.995 -266.406 204.452 -285.396 238.899 -300.537C351.341 -350.63 481.816 -361.844 608.191 -323.226C608.562 -323.306 609.013 -323.014 609.013 -323.014C609.464 -322.722 609.836 -322.801 610.287 -322.509C710.394 -292.258 791.674 -210.189 815.126 -100.594C837.466 3.80089 801.747 107.409 729.792 176.035C729.42 176.114 729.5 176.486 729.128 176.565C727.881 177.998 726.182 179.138 724.934 180.571C730.632 205.383 737.818 224.437 747.049 234.894C770.286 261.78 897.678 -106.992 914.705 -76.4452Z" fill="#FED249"/>
<path d="M905.81 216.072C910.375 211.987 915.232 207.451 919.426 203.445C921.337 201.482 923.248 199.519 925.239 197.928C927.442 195.514 930.096 193.392 932.299 190.978C932.299 190.978 932.591 190.527 932.962 190.447C933.626 189.917 934.581 188.935 935.165 188.033C938.324 184.637 941.191 181.693 944.349 178.297C945.968 176.785 947.508 174.902 948.755 173.469C950.295 171.586 951.542 170.153 953.082 168.27C954.622 166.386 955.869 164.954 957.409 163.07C960.488 159.303 963.275 155.987 966.354 152.22C968.77 148.983 971.557 145.667 973.972 142.431C1090.85 -10.4037 1113.22 -198.185 1117.46 -265.529C1117.46 -265.529 1117.46 -265.529 1117.38 -265.9C1118.76 -273.967 1118.95 -282.166 1118.31 -290.577C1118.15 -291.32 1118.15 -291.321 1118.15 -291.321C1115.91 -319.979 1103.02 -347.526 1079.27 -367.699C1065.93 -379.219 1050.7 -386.839 1034.7 -390.797C994.399 -401.21 950.002 -388.99 921.096 -355.219C900.923 -331.476 892.371 -302.449 894.618 -273.791L894.697 -273.42L894.777 -273.048C895.174 -271.19 895.2 -269.253 895.226 -267.316C899.302 -230.113 899.212 -192.407 895.54 -155.1C882.582 -32.2742 827.171 86.4272 729.948 176.777C729.576 176.857 729.656 177.228 729.284 177.308C728.037 178.741 726.338 179.881 725.091 181.314C687.402 215.798 640.64 240.569 587.143 252.016C429.622 285.724 274.58 187.581 236.945 31.6783C237.501 34.2788 238.058 36.8794 238.614 39.48C239.489 43.5666 240.735 47.5737 241.609 51.6603C243.73 59.754 246.222 67.7683 248.634 75.411C252.293 87.0608 256.694 98.5517 261.096 110.043C262.713 113.97 264.251 117.526 265.869 121.454C267.327 124.638 268.865 128.195 270.324 131.379C272.392 135.599 274.01 139.526 276.079 143.746C277.988 147.223 279.526 150.779 281.436 154.255C283.345 157.732 284.883 161.288 286.713 164.393C289.153 168.533 291.301 173.124 293.741 177.265C295.492 179.998 296.791 182.44 298.542 185.173C300.372 188.278 302.122 191.012 303.873 193.746C304.934 195.073 305.703 196.851 306.764 198.178C307.904 199.876 309.045 201.575 310.186 203.273C310.796 204.308 311.857 205.635 312.467 206.67C314.058 208.661 315.358 211.103 316.949 213.093C318.09 214.792 319.23 216.49 320.371 218.189C321.432 219.516 322.121 220.922 323.182 222.249C323.872 223.656 324.853 224.611 325.914 225.939C326.445 226.602 326.524 226.974 327.055 227.637C328.805 230.371 330.848 232.653 332.519 235.015C339.575 244.384 346.922 253.302 354.641 262.14C354.641 262.14 354.641 262.14 354.721 262.512C357.214 265.086 359.336 267.74 361.909 270.686C362.36 270.979 362.44 271.35 362.97 272.013C368.037 277.534 373.475 282.975 378.913 288.417C381.858 291.283 384.351 293.858 387.296 296.724C389.79 299.299 392.655 301.794 395.52 304.289C395.52 304.289 395.971 304.581 396.05 304.953C398.915 307.448 401.78 309.943 404.645 312.438C407.51 314.933 410.375 317.428 413.612 319.844C416.477 322.339 419.714 324.754 422.579 327.249C428.68 332.16 435.074 336.62 441.176 341.53C601.755 374.771 775.278 334.142 905.81 216.072Z" fill="#FA4546"/>
</svg>
