<svg width="46" height="48" viewBox="0 0 46 48" fill="none" xmlns="http://www.w3.org/2000/svg">
<path d="M44.9259 21.0074C44.8454 21.6245 44.6308 22.1879 44.3089 22.6708C43.504 23.8916 42.0418 24.6294 40.4857 24.4282C39.3991 24.294 38.4735 23.7172 37.8564 22.9123L37.843 22.8989C37.843 22.8989 37.843 22.8855 37.8296 22.8855C37.7893 22.8318 37.7491 22.7781 37.7088 22.7245C36.9308 21.6513 36.0454 20.6586 35.0527 19.7733C34.8515 19.5855 34.6369 19.4111 34.4222 19.2367C34.3149 19.1428 34.2076 19.0623 34.1003 18.9818C33.993 18.9013 33.8857 18.8074 33.7783 18.7269C33.671 18.6464 33.5637 18.5659 33.4564 18.4854C33.443 18.4854 33.443 18.472 33.4296 18.472C33.3222 18.3915 33.2149 18.3111 33.1076 18.244C33.0003 18.1635 32.8796 18.083 32.7588 18.0159C32.5308 17.8684 32.3027 17.7208 32.0747 17.5867C32.0613 17.5732 32.0478 17.5733 32.021 17.5598C31.9137 17.4928 31.8064 17.4257 31.6856 17.372C31.6856 17.372 31.6856 17.372 31.6722 17.372C31.31 17.1708 30.9478 16.983 30.5722 16.8086C30.4783 16.7684 30.371 16.7147 30.2771 16.6745C30.2503 16.6611 30.2369 16.6476 30.21 16.6476C30.1564 16.6208 30.1161 16.6074 30.0625 16.5806C30.0088 16.5537 29.9552 16.5269 29.9015 16.5135C29.8344 16.4867 29.7673 16.4598 29.7003 16.433C29.6198 16.3928 29.5259 16.3659 29.4454 16.3257C29.4052 16.3123 29.3515 16.2854 29.3112 16.272C29.2442 16.2452 29.1771 16.2184 29.11 16.1915C29.0564 16.1647 29.0027 16.1513 28.9356 16.1245C28.8283 16.0842 28.7076 16.044 28.6003 16.0037C28.493 15.9635 28.399 15.9367 28.2917 15.8964C28.1308 15.8428 27.9698 15.7891 27.7954 15.7489C27.6612 15.7086 27.5405 15.6684 27.4064 15.6415C27.2722 15.6013 27.1381 15.5745 27.0039 15.5342C26.8429 15.494 26.6954 15.4671 26.5344 15.4269C26.4137 15.4001 26.2795 15.3732 26.1588 15.3464C26.0112 15.3196 25.8771 15.2928 25.7295 15.2659C25.3003 15.1989 24.871 15.1318 24.4417 15.0915C24.1466 15.0647 23.8649 15.0379 23.5698 15.0245C23.4222 15.011 23.2746 15.011 23.1271 15.011C22.9795 15.011 22.832 14.9976 22.6844 14.9976C22.6442 14.9976 22.6039 14.9976 22.5637 14.9976C16.7819 14.9976 12.1002 19.6928 12.1002 25.4745C12.1002 27.2721 12.5563 28.9623 13.3478 30.4379C13.3478 30.4513 13.3612 30.4648 13.3612 30.4648C13.3746 30.4782 13.3746 30.4916 13.388 30.505C12.9319 31.2294 12.5027 31.7526 12.1002 31.994C11.0405 32.6379 10.799 19.1159 9.90021 19.9476C10.3429 19.0891 10.8392 18.2708 11.4026 17.4928C14.7966 12.8245 20.2966 9.77932 26.521 9.77932C26.749 9.77932 26.9637 9.77932 27.1783 9.79274C27.2722 9.79274 27.3661 9.79273 27.46 9.80615C27.5808 9.80615 27.6881 9.81957 27.8088 9.83298C27.8222 9.83298 27.8356 9.83298 27.8356 9.83298C27.8759 9.83298 27.9161 9.83298 27.943 9.84639C28.1039 9.85981 28.2515 9.87322 28.4125 9.88664C28.493 9.90005 28.5734 9.90005 28.6539 9.91347C28.7344 9.92688 28.8149 9.92688 28.8954 9.9403C28.9759 9.95371 29.0564 9.96713 29.1234 9.96713C29.2844 9.99396 29.4454 10.0208 29.6064 10.0476C29.7539 10.0744 29.9015 10.1013 30.0356 10.1281C36.7296 11.3623 41.7467 15.7623 43.4503 17.4257C43.6784 17.6135 43.8796 17.8147 44.054 18.0428C44.0674 18.0562 44.0808 18.0696 44.0808 18.0696C44.7515 18.8879 45.0735 19.9208 44.9259 21.0074Z" fill="#42B9B9"/>
<path d="M22.604 8.26342C24.8859 8.26342 26.7357 6.41359 26.7357 4.1317C26.7357 1.84981 24.8859 -2.28882e-05 22.604 -2.28882e-05C20.3221 -2.28882e-05 18.4723 1.84981 18.4723 4.1317C18.4723 6.41359 20.3221 8.26342 22.604 8.26342Z" fill="#42B9B9"/>
<path d="M24.1734 39.1978C23.2076 39.2514 22.2551 39.2246 21.3027 39.1173C15.5612 38.5136 10.1685 35.2673 7.0563 29.888C6.94899 29.7002 6.84167 29.499 6.73435 29.3112C6.69411 29.2307 6.64045 29.1368 6.60021 29.0563C6.54655 28.949 6.49289 28.8551 6.43923 28.7477C6.43923 28.7343 6.42581 28.7343 6.42581 28.7209C6.4124 28.6807 6.38557 28.6538 6.37216 28.6136C6.30508 28.466 6.23801 28.3319 6.17094 28.1843C6.14411 28.1173 6.10386 28.0368 6.07704 27.9697C6.05021 27.9026 6.00996 27.8221 5.98313 27.7551C5.9563 27.688 5.91606 27.6075 5.88923 27.5404C5.82215 27.3929 5.7685 27.2319 5.71484 27.0843C5.66118 26.9502 5.60752 26.8026 5.56727 26.6685C3.30019 20.2563 4.588 13.7099 5.19167 11.4026C5.19167 11.4026 5.19167 11.4026 5.19167 11.3891C5.24532 11.1074 5.3124 10.8257 5.43313 10.5574C5.43313 10.5306 5.44654 10.5306 5.44654 10.5306C5.83557 9.59158 6.57338 8.80011 7.57948 8.38426C8.15631 8.14279 8.74655 8.04889 9.32339 8.08913C10.7856 8.16962 12.1539 9.0684 12.7575 10.5172C13.1734 11.5233 13.1466 12.6099 12.7575 13.5489C12.7575 13.5489 12.7575 13.5623 12.7441 13.5623V13.5757C12.7173 13.6428 12.6905 13.6965 12.6636 13.7501C12.1271 14.9575 11.7112 16.2184 11.4429 17.5197C10.5441 21.7721 11.121 26.3599 13.388 30.438C13.388 30.4514 13.4014 30.4648 13.4014 30.4648C13.4149 30.4782 13.4149 30.4917 13.4283 30.5051C15.2124 33.738 18.6466 35.938 22.6039 35.938C26.3734 35.938 29.6869 33.9392 31.5247 30.9478C31.5247 30.9343 31.5381 30.9343 31.5381 30.9209C31.5783 30.8673 31.6052 30.8002 31.6454 30.7465C32.5442 30.7599 33.2552 30.8673 33.6844 31.1087C34.7845 31.7124 22.9929 38.8356 24.1734 39.1978Z" fill="#EEBC20"/>
<path d="M4.13191 40.2709C6.41379 40.2709 8.26363 38.4211 8.26363 36.1392C8.26363 33.8573 6.41379 32.0075 4.13191 32.0075C1.85002 32.0075 0.000183105 33.8573 0.000183105 36.1392C0.000183105 38.4211 1.85002 40.2709 4.13191 40.2709Z" fill="#EEBC20"/>
<path d="M34.2076 36.7294C34.1003 36.9172 33.9795 37.1184 33.8722 37.2928C33.8185 37.3733 33.7649 37.4538 33.7246 37.5342C33.6576 37.6281 33.6039 37.7355 33.5368 37.8294C33.5368 37.8294 33.5234 37.8428 33.5234 37.8562C33.51 37.883 33.4832 37.9233 33.4564 37.9501C33.3624 38.0842 33.282 38.205 33.1881 38.3391C33.1478 38.4062 33.0942 38.4733 33.0539 38.5269C33.0003 38.594 32.96 38.6477 32.9064 38.7147C32.8527 38.7818 32.8124 38.8355 32.7588 38.9025C32.6515 39.0367 32.5576 39.1574 32.4502 39.2916C32.3563 39.3989 32.2624 39.5196 32.1685 39.6269C27.7551 44.7916 21.4368 46.9514 19.1429 47.5953C19.1429 47.5953 19.1429 47.5953 19.1295 47.5953C18.8612 47.7026 18.5795 47.7696 18.2843 47.8099C18.2575 47.8099 18.2575 47.8099 18.2575 47.8099C17.2514 47.944 16.2051 47.7026 15.3331 47.0318C14.8368 46.6562 14.4612 46.1867 14.2063 45.6635C13.549 44.3489 13.6429 42.7257 14.5953 41.4782C15.266 40.6062 16.2051 40.0965 17.2112 39.9623H17.2246H17.238C17.3051 39.9623 17.3721 39.9489 17.4392 39.9355C18.7539 39.8013 20.0551 39.5196 21.3161 39.1172C25.4612 37.7623 29.1502 34.972 31.5515 30.9476C31.5515 30.9342 31.5649 30.9342 31.5649 30.9208C31.6051 30.8671 31.632 30.8001 31.6722 30.7464C32.5844 29.1903 33.0942 27.3927 33.0942 25.461C33.0942 19.7732 28.56 15.1451 22.899 14.9976C22.9929 14.9976 23.0868 14.9976 23.1807 14.9976C23.3283 14.9976 23.4758 15.011 23.6234 15.011C23.9185 15.0244 24.2136 15.0512 24.4953 15.0781C24.9246 15.1183 25.3539 15.1854 25.7832 15.2525C25.9307 15.2793 26.0649 15.3061 26.2124 15.3329C26.3332 15.3598 26.4673 15.3866 26.588 15.4134C26.749 15.4537 26.8966 15.4805 27.0575 15.5208C27.1917 15.561 27.3258 15.5878 27.46 15.6281C27.5941 15.6683 27.7283 15.6951 27.849 15.7354C28.01 15.789 28.1844 15.8293 28.3454 15.8829C28.4527 15.9232 28.5466 15.95 28.6539 15.9903C28.7746 16.0305 28.8819 16.0708 28.9893 16.111C29.0429 16.1378 29.11 16.1512 29.1637 16.1781C29.2307 16.2049 29.2978 16.2317 29.3649 16.2586C29.4051 16.272 29.4588 16.2988 29.499 16.3122C29.5795 16.3525 29.6734 16.3793 29.7539 16.4195C29.821 16.4464 29.888 16.4732 29.9551 16.5C30.0088 16.5269 30.0624 16.5403 30.1161 16.5671C30.1698 16.5805 30.21 16.6073 30.2637 16.6342C30.2905 16.6476 30.3039 16.6476 30.3307 16.661C30.438 16.7012 30.532 16.7549 30.6259 16.7951C31.0015 16.9695 31.3637 17.1573 31.7259 17.3586C31.7259 17.3586 31.7259 17.3586 31.7393 17.3586C31.8466 17.4256 31.9539 17.4793 32.0746 17.5464C32.0881 17.5598 32.1015 17.5598 32.1283 17.5732C32.3563 17.7073 32.5844 17.8549 32.8124 18.0025C32.9332 18.083 33.0405 18.15 33.1612 18.2305C33.2685 18.2976 33.3759 18.3781 33.4832 18.4586C33.4832 18.4586 33.4966 18.472 33.51 18.472C33.6173 18.5525 33.7246 18.633 33.832 18.7134C33.9393 18.7939 34.0466 18.8744 34.1539 18.9683C34.2612 19.0488 34.3685 19.1427 34.4759 19.2232C34.6905 19.3976 34.8917 19.5854 35.1064 19.7598C37.4405 25.0586 37.3198 31.3501 34.2076 36.7294Z" fill="#E33334"/>
<path d="M41.0893 40.2709C43.3712 40.2709 45.221 38.4211 45.221 36.1392C45.221 33.8573 43.3712 32.0075 41.0893 32.0075C38.8074 32.0075 36.9576 33.8573 36.9576 36.1392C36.9576 38.4211 38.8074 40.2709 41.0893 40.2709Z" fill="#E33334"/>
</svg>
